<?xml version="1.0" encoding="UTF-8"?>
<svg width="16px" height="16px" viewBox="0 0 16 16" version="1.1" xmlns="http://www.w3.org/2000/svg" xmlns:xlink="http://www.w3.org/1999/xlink">
    <!-- Generator: Sketch 41 (35326) - http://www.bohemiancoding.com/sketch -->
    <title>Shape</title>
    <desc>Created with Sketch.</desc>
    <defs></defs>
    <g id="Page-1" stroke="none" stroke-width="1" fill="none" fill-rule="evenodd">
        <path d="M8,16 C3.59,16 0,12.41 0,8 C0,3.59 3.59,0 8,0 C12.41,0 16,3.59 16,8 C16,12.41 12.41,16 8,16 Z M14.747,9.095 C14.513,9.021 12.632,8.46 10.49,8.803 C11.384,11.259 11.748,13.259 11.818,13.675 C13.351,12.638 14.442,10.995 14.748,9.095 L14.747,9.095 Z M10.67,14.3 C10.568,13.7 10.17,11.612 9.21,9.12 L9.166,9.134 C5.312,10.477 3.93,13.15 3.806,13.4 C4.964,14.305 6.42,14.844 8,14.844 C8.947,14.844 9.85,14.65 10.67,14.301 L10.67,14.3 Z M2.923,12.58 C3.078,12.314 4.953,9.21 8.478,8.07 C8.568,8.04 8.658,8.014 8.748,7.99 C8.575,7.6 8.388,7.212 8.193,6.83 C4.78,7.85 1.47,7.807 1.17,7.8 L1.167,8.008 C1.167,9.763 1.832,11.366 2.923,12.578 L2.923,12.58 Z M1.31,6.61 C1.617,6.615 4.432,6.627 7.628,5.778 C6.496,3.766 5.275,2.073 5.095,1.826 C3.183,2.728 1.755,4.49 1.311,6.611 L1.31,6.61 Z M6.4,1.368 C6.588,1.621 7.83,3.311 8.948,5.368 C11.378,4.458 12.408,3.075 12.53,2.9 C11.323,1.827 9.736,1.176 8,1.176 C7.45,1.176 6.913,1.242 6.4,1.366 L6.4,1.368 Z M13.29,3.69 C13.145,3.884 12,5.352 9.474,6.384 C9.634,6.709 9.784,7.04 9.927,7.374 C9.977,7.491 10.027,7.609 10.074,7.726 C12.348,7.44 14.607,7.898 14.832,7.946 C14.817,6.333 14.242,4.852 13.289,3.689 L13.29,3.69 Z" id="Shape" fill="#EA4C89"></path>
    </g>
</svg>