<?xml version="1.0" encoding="UTF-8"?>
<svg width="16px" height="16px" viewBox="0 0 16 16" version="1.1" xmlns="http://www.w3.org/2000/svg" xmlns:xlink="http://www.w3.org/1999/xlink">
    <!-- Generator: Sketch 41 (35326) - http://www.bohemiancoding.com/sketch -->
    <title>github</title>
    <desc>Created with Sketch.</desc>
    <defs></defs>
    <g id="Page-1" stroke="none" stroke-width="1" fill="none" fill-rule="evenodd">
        <g id="github" fill="#4078C0">
            <path d="M8,0.198136713 C3.58,0.198136713 0,3.78013671 0,8.19813671 C0,11.7331367 2.292,14.7311367 5.47,15.7881367 C5.87,15.8631367 6.017,15.6161367 6.017,15.4031367 C6.017,15.2131367 6.01,14.7101367 6.007,14.0431367 C3.781,14.5261367 3.312,12.9701367 3.312,12.9701367 C2.948,12.0461367 2.422,11.8001367 2.422,11.8001367 C1.697,11.3041367 2.478,11.3141367 2.478,11.3141367 C3.281,11.3701367 3.703,12.1381367 3.703,12.1381367 C4.417,13.3611367 5.576,13.0081367 6.033,12.8031367 C6.105,12.2861367 6.311,11.9331367 6.54,11.7331367 C4.763,11.5331367 2.896,10.8451367 2.896,7.78013671 C2.896,6.90713671 3.206,6.19313671 3.719,5.63313671 C3.636,5.43113671 3.361,4.61813671 3.796,3.51613671 C3.796,3.51613671 4.468,3.30113671 5.996,4.33613671 C6.634,4.15813671 7.319,4.07013671 7.999,4.06613671 C8.679,4.07013671 9.363,4.15813671 10.002,4.33613671 C11.529,3.30113671 12.2,3.51613671 12.2,3.51613671 C12.637,4.61813671 12.363,5.43113671 12.28,5.63313671 C12.793,6.19313671 13.103,6.90713671 13.103,7.78013671 C13.103,10.8531367 11.233,11.5301367 9.45,11.7271367 C9.737,11.9731367 9.993,12.4621367 9.993,13.2071367 C9.993,14.2771367 9.983,15.1401367 9.983,15.4021367 C9.983,15.6171367 10.127,15.8651367 10.533,15.7871367 C13.71,14.7281367 16,11.7321367 16,8.19813671 C16,3.78013671 12.418,0.198136713 8,0.198136713"></path>
        </g>
    </g>
</svg>