<?xml version="1.0" encoding="UTF-8"?>
<svg width="16px" height="16px" viewBox="0 0 16 16" version="1.1" xmlns="http://www.w3.org/2000/svg" xmlns:xlink="http://www.w3.org/1999/xlink">
    <!-- Generator: Sketch 41 (35326) - http://www.bohemiancoding.com/sketch -->
    <title>spotify</title>
    <desc>Created with Sketch.</desc>
    <defs></defs>
    <g id="Page-1" stroke="none" stroke-width="1" fill="none" fill-rule="evenodd">
        <path d="M8,0 C3.6,0 0,3.6 0,8 C0,12.4 3.6,16 8,16 C12.4,16 16,12.4 16,8 C16,3.6 12.44,0 8,0 Z M11.68,11.56 C11.52,11.8 11.24,11.88 11,11.72 C9.12,10.56 6.76,10.32 3.96,10.96 C3.68,11.04 3.44,10.84 3.36,10.6 C3.28,10.32 3.48,10.08 3.72,10 C6.76,9.32 9.4,9.6 11.48,10.88 C11.76,11 11.8,11.32 11.68,11.56 L11.68,11.56 Z M12.64,9.36 C12.44,9.64 12.08,9.76 11.8,9.56 C9.64,8.24 6.36,7.84 3.84,8.64 C3.52,8.72 3.16,8.56 3.08,8.24 C3,7.92 3.16,7.56 3.48,7.48 C6.4,6.6 10,7.04 12.48,8.56 C12.72,8.68 12.84,9.08 12.64,9.36 Z M12.72,7.12 C10.16,5.6 5.88,5.44 3.44,6.2 C3.04,6.32 2.64,6.08 2.52,5.72 C2.4,5.32 2.64,4.92 3,4.8 C5.84,3.96 10.52,4.12 13.48,5.88 C13.84,6.08 13.96,6.56 13.76,6.92 C13.56,7.2 13.08,7.32 12.72,7.12 L12.72,7.12 Z" id="spotify" fill="#2EBD59"></path>
    </g>
</svg>