<?xml version="1.0" encoding="UTF-8"?>
<svg width="16px" height="14px" viewBox="0 0 16 14" version="1.1" xmlns="http://www.w3.org/2000/svg" xmlns:xlink="http://www.w3.org/1999/xlink">
    <!-- Generator: Sketch 41 (35326) - http://www.bohemiancoding.com/sketch -->
    <title>Shape</title>
    <desc>Created with Sketch.</desc>
    <defs></defs>
    <g id="Page-1" stroke="none" stroke-width="1" fill="none" fill-rule="evenodd">
        <path d="M16,2.038 C15.41,2.298 14.78,2.475 14.115,2.555 C14.792,2.148 15.313,1.505 15.558,0.739 C14.924,1.114 14.221,1.387 13.473,1.534 C12.875,0.896 12.023,0.498 11.077,0.498 C9.265,0.498 7.795,1.966 7.795,3.778 C7.795,4.036 7.825,4.288 7.88,4.528 C5.152,4.39 2.733,3.084 1.114,1.1 C0.83,1.583 0.67,2.147 0.67,2.75 C0.67,3.89 1.25,4.893 2.13,5.482 C1.592,5.465 1.085,5.317 0.643,5.072 L0.643,5.112 C0.643,6.702 1.773,8.03 3.276,8.332 C3,8.406 2.71,8.446 2.411,8.446 C2.201,8.446 1.995,8.426 1.794,8.388 C2.212,9.692 3.424,10.641 4.861,10.668 C3.737,11.548 2.321,12.072 0.784,12.072 C0.519,12.072 0.258,12.057 0.001,12.027 C1.454,12.957 3.179,13.501 5.033,13.501 C11.071,13.501 14.373,8.501 14.373,4.163 C14.373,4.02 14.369,3.879 14.363,3.738 C15.003,3.275 15.561,2.698 16.001,2.038 L16,2.038 Z" id="Shape" fill="#1DA1F2"></path>
    </g>
</svg>