<svg width="16" height="14" viewBox="0 0 16 14" xmlns="http://www.w3.org/2000/svg"><title>Shape</title><path d="M16 2.038a6.62 6.62 0 0 1-1.885.517A3.299 3.299 0 0 0 15.558.739a6.59 6.59 0 0 1-2.085.795A3.273 3.273 0 0 0 11.077.498a3.281 3.281 0 0 0-3.197 4.03A9.329 9.329 0 0 1 1.114 1.1 3.243 3.243 0 0 0 .67 2.75c0 1.14.58 2.143 1.46 2.732a3.278 3.278 0 0 1-1.487-.41v.04c0 1.59 1.13 2.918 2.633 3.22a3.336 3.336 0 0 1-1.482.056 3.287 3.287 0 0 0 3.067 2.28 6.592 6.592 0 0 1-4.077 1.404c-.265 0-.526-.015-.783-.045a9.303 9.303 0 0 0 5.032 1.474c6.038 0 9.34-5 9.34-9.338 0-.143-.004-.284-.01-.425a6.67 6.67 0 0 0 1.638-1.7H16z" fill="#1DA1F2" fill-rule="evenodd"/></svg>